<svg xmlns="http://www.w3.org/2000/svg" width="512" height="512" viewBox="0 0 128 128"><path xmlns="http://www.w3.org/2000/svg" d="M109.675 55.574L99.57 53.536a36.825 36.825 0 00-3.024-7.281l5.71-8.594a1.749 1.749 0 00-.22-2.2l-9.492-9.492a1.749 1.749 0 00-2.2-.22l-8.594 5.71a36.825 36.825 0 00-7.281-3.024l-2.038-10.1a1.749 1.749 0 00-1.715-1.4H57.289a1.749 1.749 0 00-1.715 1.4L53.536 28.43a36.825 36.825 0 00-7.281 3.024l-8.594-5.71a1.748 1.748 0 00-2.2.22l-9.492 9.492a1.749 1.749 0 00-.22 2.2l5.71 8.594a36.825 36.825 0 00-3.024 7.281l-10.1 2.038a1.749 1.749 0 00-1.4 1.715v13.427a1.749 1.749 0 001.4 1.715l10.095 2.038a36.825 36.825 0 003.024 7.281l-5.71 8.594a1.749 1.749 0 00.22 2.2l9.492 9.492a1.748 1.748 0 002.2.22l8.594-5.71a36.825 36.825 0 007.281 3.024l2.038 10.105a1.749 1.749 0 001.715 1.4h13.427a1.749 1.749 0 001.715-1.4l2.038-10.1a36.825 36.825 0 007.281-3.024l8.594 5.71a1.752 1.752 0 002.2-.22l9.492-9.492a1.749 1.749 0 00.22-2.2l-5.71-8.594a36.825 36.825 0 003.024-7.281l10.105-2.038a1.749 1.749 0 001.4-1.715V57.289a1.749 1.749 0 00-1.395-1.715zm-2.1 13.7l-9.754 1.967a1.747 1.747 0 00-1.346 1.273 33.4 33.4 0 01-3.5 8.415 1.748 1.748 0 00.053 1.852l5.511 8.3-7.465 7.465-8.3-5.511a1.748 1.748 0 00-1.852-.053 33.4 33.4 0 01-8.415 3.5 1.747 1.747 0 00-1.273 1.346l-1.967 9.754H58.721l-1.967-9.754a1.747 1.747 0 00-1.273-1.346 33.4 33.4 0 01-8.415-3.5 1.751 1.751 0 00-1.852.053l-8.3 5.511-7.465-7.465 5.511-8.3a1.748 1.748 0 00.053-1.852 33.4 33.4 0 01-3.495-8.415 1.747 1.747 0 00-1.346-1.273l-9.754-1.967V58.721l9.754-1.967a1.747 1.747 0 001.346-1.273 33.4 33.4 0 013.495-8.415 1.748 1.748 0 00-.053-1.852l-5.511-8.3 7.465-7.465 8.3 5.511a1.746 1.746 0 001.852.053 33.4 33.4 0 018.415-3.495 1.747 1.747 0 001.273-1.346l1.967-9.754h10.558l1.967 9.754a1.747 1.747 0 001.273 1.346 33.4 33.4 0 018.415 3.495 1.746 1.746 0 001.852-.053l8.3-5.511 7.465 7.465-5.511 8.3a1.748 1.748 0 00-.053 1.852 33.4 33.4 0 013.5 8.415 1.747 1.747 0 001.346 1.273l9.754 1.967z" fill="#333" data-original="#000000"/><path xmlns="http://www.w3.org/2000/svg" d="M64 39.877A24.123 24.123 0 1088.123 64 24.151 24.151 0 0064 39.877zm0 44.746A20.623 20.623 0 1184.623 64 20.647 20.647 0 0164 84.623z" fill="#333" data-original="#000000"/><path xmlns="http://www.w3.org/2000/svg" d="M64 47.215A16.785 16.785 0 1080.785 64 16.8 16.8 0 0064 47.215zm0 30.07A13.285 13.285 0 1177.285 64 13.3 13.3 0 0164 77.285z" fill="#333" data-original="#000000"/></svg>